<svg id="Ebene_1" data-name="Ebene 1" xmlns="http://www.w3.org/2000/svg" viewBox="0 0 521.85 155.33"><defs><style>.cls-1{fill:#fff;}</style></defs><title>screen--bild-wortmarke--white</title><path class="cls-1" d="M40.64,120.29,13,88.09,50,45.43l10.8,10.82v1.57l-26.54,30,26.54,30.88v1.57Z"/><path class="cls-1" d="M78.24,27.12l25.47,29.32L66.17,100,55.94,88.63V87.06L82.48,56.79,58.09,28.68V27.12Z"/><path class="cls-1" d="M116.29,107.59V96.25L144,62.86H119.62l-.73-10.5h39.42V63.7L130.64,97.08h26.42l1.35,10.5Z"/><path class="cls-1" d="M231.09,107.59H218.29l-10-34.53A35.25,35.25,0,0,1,207,66.4h-.83a34.61,34.61,0,0,1-1.25,6.66l-10,34.53H182.1L169.62,52.36H182.1l6.34,32.76a61.66,61.66,0,0,1,1,7.18h.73a41.13,41.13,0,0,1,1.46-7.18l8.94-31.3h12.9l8.84,31.3a37.64,37.64,0,0,1,1.35,7.18h.83a61.61,61.61,0,0,1,1-7.18l6.76-32.76h11.54Z"/><path class="cls-1" d="M277.15,108.63c-16.64,0-24.65-9-24.65-27.56,0-20.49,8.84-29.75,23.51-29.75,13.1,0,20.9,7.28,20.9,21.94a89.06,89.06,0,0,1-.52,9.36s-20.28.52-30.58.83c0,10.92,3.22,13.94,11.34,13.94,2.08,0,5.51-.21,16.33-3.54l2.29,10.92C286.61,107.59,281,108.63,277.15,108.63Zm7.28-37.75c0-7.49-3-10.5-8.63-10.5-6.24,0-9.67,3.22-9.78,14.87,7.18-.1,18.3-.31,18.3-.31C284.43,73.16,284.43,71.81,284.43,70.87Z"/><path class="cls-1" d="M317.6,43.52c-4.58,0-7.59-2.6-7.59-7.28s3-7.18,7.7-7.18c4.37,0,7.59,2.29,7.59,7.18C325.3,40.82,322.49,43.52,317.6,43.52Zm-6.24,64.07V52.36H324v55.23Z"/><path class="cls-1" d="M357.33,108.63c-8.95,0-12.69-4.37-12.69-14V63.28h-7.38V52.36h7.38V40.71l12.69-2.18V52.36h15.39V63.28H357.33V93.75c0,2.18.83,3,2.81,3,1.77,0,4.06-.42,12.38-3.74l2.08,11C364.3,108.21,360.76,108.63,357.33,108.63Z"/><path class="cls-1" d="M416.75,107.59l-.62-3.85h-.83c-8.53,4.16-12,4.89-15.29,4.89-9.57,0-14.87-4.68-14.87-15.08,0-10.19,6.55-14.67,15.81-15.71l14.56-1.66V66.4c0-2.7-1.25-3.85-4.47-3.85-3.74,0-12.69,1.35-20.18,3.74l-2.5-10.71c10.3-3.12,18.62-4.26,24.34-4.26,9.67,0,15,3.54,15,13.31v43Zm-1.25-23-16,1.56a10.9,10.9,0,0,0-1.87,6.45c0,4.68,1.87,6.55,7.18,6.55,2.7,0,6.45-.94,10.71-2.6Z"/><path class="cls-1" d="M464.69,131.51c-3.85,0-9.46-1-18.62-3.85l2.29-10.92c10.82,3.33,14.25,3.54,16.33,3.54,8.53,0,12-3,12-14v-2.6h-.73c-6.14,3.85-10.09,5-14.35,5-12,0-19.34-7-19.34-28.08,0-20.7,9.57-29.22,21.42-29.22,4.16,0,7.8.94,13.21,3l.62-2h11.86V104C489.23,122.56,481.22,131.51,464.69,131.51Zm12-67.81A29.53,29.53,0,0,0,467,61.41c-6.66,0-11.34,2.91-11.34,19.34,0,15.08,4.26,17.37,9.67,17.37,3.22,0,5.72-1.14,11.34-4.26Z"/></svg>