<svg id="Ebene_1" data-name="Ebene 1" xmlns="http://www.w3.org/2000/svg" viewBox="0 0 402 145"><title>screen--wortmarke</title><path d="M16.51,103.73V92.39L44.17,59H19.84l-.73-10.5H58.53V59.84L30.86,93.22H57.28l1.35,10.5Z"/><path d="M128.31,103.73H115.52l-10-34.53a35.31,35.31,0,0,1-1.35-6.66h-.83a34.59,34.59,0,0,1-1.25,6.66l-10,34.53H79.33L66.84,48.5H79.33l6.34,32.76a61.55,61.55,0,0,1,1,7.18h.73a41.16,41.16,0,0,1,1.46-7.18L97.84,50h12.9l8.84,31.3a37.62,37.62,0,0,1,1.35,7.18h.83a61.55,61.55,0,0,1,1-7.18l6.76-32.76H141.1Z"/><path d="M172.93,104.77c-16.64,0-24.65-9-24.65-27.56,0-20.49,8.84-29.74,23.51-29.74,13.1,0,20.9,7.28,20.9,21.94a89.08,89.08,0,0,1-.52,9.36s-20.28.52-30.58.83c0,10.92,3.22,13.94,11.34,13.94,2.08,0,5.51-.21,16.33-3.54l2.29,10.92C182.39,103.73,176.77,104.77,172.93,104.77ZM180.21,67c0-7.49-3-10.5-8.63-10.5-6.24,0-9.67,3.22-9.78,14.87,7.18-.1,18.3-.31,18.3-.31C180.21,69.3,180.21,67.95,180.21,67Z"/><path d="M211.61,39.66c-4.58,0-7.59-2.6-7.59-7.28s3-7.18,7.7-7.18c4.37,0,7.59,2.29,7.59,7.18C219.31,37,216.5,39.66,211.61,39.66Zm-6.24,64.07V48.5h12.69v55.23Z"/><path d="M250.92,104.77c-8.95,0-12.69-4.37-12.69-14V59.42h-7.38V48.5h7.38V36.85l12.69-2.18V48.5h15.39V59.42H250.92V89.89c0,2.18.83,3,2.81,3,1.77,0,4.06-.42,12.38-3.74l2.08,11C257.89,104.35,254.36,104.77,250.92,104.77Z"/><path d="M307.81,103.73l-.62-3.85h-.83c-8.53,4.16-12,4.89-15.29,4.89-9.57,0-14.87-4.68-14.87-15.08C276.19,79.49,282.75,75,292,74l14.56-1.66V62.54c0-2.7-1.25-3.85-4.47-3.85-3.74,0-12.69,1.35-20.18,3.74l-2.5-10.71c10.3-3.12,18.62-4.26,24.34-4.26,9.67,0,15,3.54,15,13.31v43Zm-1.25-23-16,1.56a10.89,10.89,0,0,0-1.87,6.45c0,4.68,1.87,6.55,7.18,6.55,2.71,0,6.45-.94,10.71-2.6Z"/><path d="M353.78,127.65c-3.85,0-9.46-1-18.62-3.85l2.29-10.92c10.82,3.33,14.25,3.54,16.33,3.54,8.53,0,12-3,12-14v-2.6H365c-6.14,3.85-10.09,5-14.35,5-12,0-19.34-7-19.34-28.08,0-20.7,9.57-29.22,21.42-29.22,4.16,0,7.8.94,13.21,3l.62-2h11.86v51.69C378.32,118.7,370.31,127.65,353.78,127.65Zm12-67.81a29.53,29.53,0,0,0-9.67-2.29c-6.66,0-11.34,2.91-11.34,19.34,0,15.08,4.26,17.37,9.67,17.37,3.22,0,5.72-1.14,11.34-4.26Z"/></svg>