<?xml version="1.0" encoding="utf-8"?>
<!-- Generator: Adobe Illustrator 21.0.2, SVG Export Plug-In . SVG Version: 6.00 Build 0)  -->
<svg version="1.1" id="Ebene_1" xmlns="http://www.w3.org/2000/svg" xmlns:xlink="http://www.w3.org/1999/xlink" x="0px" y="0px"
	 viewBox="0 0 500.7 155.3" style="enable-background:new 0 0 500.7 155.3;" xml:space="preserve">
<style type="text/css">
	.st0{fill:#05888F;}
	.st1{fill:#009A7D;}
</style>
<title>screen--bild-wortmarke</title>
<g>
	<path d="M115.2,107.4V96.1l27.7-33.4h-24.4l-0.7-10.5h39.4v11.3l-27.7,33.4h26.4l1.4,10.5H115.2z"/>
	<path d="M227,107.4h-12.8l-10-34.5c-0.7-2.2-1.1-4.4-1.4-6.7H202c-0.2,2.3-0.6,4.5-1.2,6.7l-10,34.5H178l-12.5-55.2H178l6.3,32.8
		c0.5,2.4,0.8,4.8,1,7.2h0.7c0.3-2.4,0.8-4.8,1.5-7.2l8.9-31.3h12.9l8.8,31.3c0.7,2.3,1.1,4.7,1.4,7.2h0.8c0.2-2.4,0.5-4.8,1-7.2
		l6.8-32.8h11.5L227,107.4z"/>
	<path d="M271.6,108.5c-16.6,0-24.6-9-24.6-27.6c0-20.5,8.8-29.7,23.5-29.7c13.1,0,20.9,7.3,20.9,21.9c0,3.1-0.2,6.3-0.5,9.4
		c0,0-20.3,0.5-30.6,0.8c0,10.9,3.2,13.9,11.3,13.9c2.1,0,5.5-0.2,16.3-3.5l2.3,10.9C281.1,107.4,275.4,108.5,271.6,108.5z
		 M278.9,70.7c0-7.5-3-10.5-8.6-10.5c-6.2,0-9.7,3.2-9.8,14.9c7.2-0.1,18.3-0.3,18.3-0.3C278.9,73,278.9,71.7,278.9,70.7z"/>
	<path d="M310.3,43.4c-4.6,0-7.6-2.6-7.6-7.3s3-7.2,7.7-7.2c4.4,0,7.6,2.3,7.6,7.2C318,40.7,315.2,43.4,310.3,43.4z M304,107.4V52.2
		h12.7v55.2L304,107.4z"/>
	<path d="M349.6,108.5c-9,0-12.7-4.4-12.7-14V63.1h-7.4V52.2h7.4V40.6l12.7-2.2v13.8H365v10.9h-15.4v30.5c0,2.2,0.8,3,2.8,3
		c1.8,0,4.1-0.4,12.4-3.7l2.1,11C356.6,108.1,353,108.5,349.6,108.5z"/>
	<path d="M406.5,107.4l-0.6-3.8H405c-8.5,4.2-12,4.9-15.3,4.9c-9.6,0-14.9-4.7-14.9-15.1c0-10.2,6.5-14.7,15.8-15.7l14.6-1.7v-9.7
		c0-2.7-1.2-3.8-4.5-3.8c-3.7,0-12.7,1.3-20.2,3.7l-2.5-10.7c10.3-3.1,18.6-4.3,24.3-4.3c9.7,0,15,3.5,15,13.3v43L406.5,107.4z
		 M405.2,84.4l-16,1.6c-1.3,1.9-1.9,4.2-1.9,6.4c0,4.7,1.9,6.6,7.2,6.6c2.7,0,6.5-0.9,10.7-2.6L405.2,84.4z"/>
	<path d="M452.4,131.4c-3.9,0-9.5-1-18.6-3.8l2.3-10.9c10.8,3.3,14.2,3.5,16.3,3.5c8.5,0,12-3,12-14v-2.6h-0.7
		c-6.1,3.8-10.1,5-14.4,5c-12,0-19.3-7-19.3-28.1c0-20.7,9.6-29.2,21.4-29.2c4.2,0,7.8,0.9,13.2,3l0.6-2h11.9v51.7
		C477,122.4,469,131.4,452.4,131.4z M464.4,63.6c-3.1-1.3-6.3-2.1-9.7-2.3c-6.7,0-11.3,2.9-11.3,19.3c0,15.1,4.3,17.4,9.7,17.4
		c3.2,0,5.7-1.1,11.3-4.3V63.6z"/>
</g>
<g>
	<path class="st0" d="M44.6,120.3L17,88.1l37-42.7l10.8,10.8v1.6l-26.5,30l26.5,30.9v1.6L44.6,120.3z"/>
	<path class="st1" d="M78.2,27.1l25.5,29.3L66.2,100L55.9,88.6v-1.6l26.5-30.3L58.1,28.7v-1.6H78.2z"/>
</g>
</svg>
