<svg id="Ebene_1" data-name="Ebene 1" xmlns="http://www.w3.org/2000/svg" viewBox="0 0 435.69 145"><defs><style>.cls-1{fill:#fff;}</style></defs><title>screen--wortmarke--white</title><path class="cls-1" d="M31.32,102.42V91.08L59,57.7H34.65l-.73-10.5H73.34V58.53L45.67,91.92H72.09l1.35,10.5Z"/><path class="cls-1" d="M146.12,102.42H133.33l-10-34.53A35.28,35.28,0,0,1,122,61.23h-.83a34.63,34.63,0,0,1-1.25,6.66l-10,34.53H97.13L84.65,47.19H97.13L103.48,80a61.66,61.66,0,0,1,1,7.18h.73A41.14,41.14,0,0,1,106.7,80l8.94-31.3h12.9L137.38,80a37.63,37.63,0,0,1,1.35,7.18h.83a61.6,61.6,0,0,1,1-7.18l6.76-32.76h11.54Z"/><path class="cls-1" d="M192.18,103.46c-16.64,0-24.65-9-24.65-27.56,0-20.49,8.84-29.74,23.51-29.74,13.1,0,20.9,7.28,20.9,21.94a89.08,89.08,0,0,1-.52,9.36s-20.28.52-30.58.83c0,10.92,3.22,13.94,11.34,13.94,2.08,0,5.51-.21,16.33-3.54l2.29,10.92C201.64,102.42,196,103.46,192.18,103.46Zm7.28-37.75c0-7.49-3-10.5-8.63-10.5-6.24,0-9.67,3.22-9.78,14.87,7.18-.1,18.3-.31,18.3-.31C199.46,68,199.46,66.64,199.46,65.71Z"/><path class="cls-1" d="M232.63,38.35c-4.58,0-7.59-2.6-7.59-7.28s3-7.18,7.7-7.18c4.37,0,7.59,2.29,7.59,7.18C240.33,35.65,237.52,38.35,232.63,38.35Zm-6.24,64.07V47.19h12.69v55.23Z"/><path class="cls-1" d="M272.36,103.46c-8.95,0-12.69-4.37-12.69-14V58.11h-7.38V47.19h7.38V35.54l12.69-2.18V47.19h15.39V58.11H272.36V88.59c0,2.18.83,3,2.81,3,1.77,0,4.06-.42,12.38-3.74l2.08,11C279.33,103,275.79,103.46,272.36,103.46Z"/><path class="cls-1" d="M331.79,102.42l-.62-3.85h-.83c-8.53,4.16-12,4.89-15.29,4.89-9.57,0-14.87-4.68-14.87-15.08,0-10.19,6.55-14.66,15.81-15.7L330.54,71V61.23c0-2.7-1.25-3.85-4.47-3.85-3.74,0-12.69,1.35-20.18,3.74l-2.5-10.71c10.3-3.12,18.62-4.26,24.34-4.26,9.67,0,15,3.54,15,13.31v43Zm-1.25-23-16,1.56a10.9,10.9,0,0,0-1.87,6.45c0,4.68,1.87,6.55,7.18,6.55,2.7,0,6.45-.94,10.71-2.6Z"/><path class="cls-1" d="M379.72,126.34c-3.85,0-9.46-1-18.62-3.85l2.29-10.92c10.82,3.33,14.25,3.54,16.33,3.54,8.53,0,12-3,12-14v-2.6H391c-6.14,3.85-10.09,5-14.35,5-12,0-19.34-7-19.34-28.08,0-20.7,9.57-29.22,21.42-29.22,4.16,0,7.8.94,13.21,3l.62-2h11.86V98.88C404.26,117.4,396.25,126.34,379.72,126.34Zm12-67.81A29.53,29.53,0,0,0,382,56.24c-6.66,0-11.34,2.91-11.34,19.34,0,15.08,4.26,17.37,9.67,17.37,3.22,0,5.72-1.14,11.34-4.26Z"/></svg>