<svg id="Ebene_1" data-name="Ebene 1" xmlns="http://www.w3.org/2000/svg" xmlns:xlink="http://www.w3.org/1999/xlink" viewBox="0 0 1440 753">
  <defs>
    <style>.cls-1{fill:url(#Unbenannter_Verlauf_5);}.cls-2{fill:#e9556c;}.cls-3{fill:#fff;}.cls-4{opacity:0.35;}.cls-5{fill:#05888f;}</style>
    <linearGradient id="Unbenannter_Verlauf_5" x1="84.74" y1="468.55" x2="1297.33" y2="468.55" gradientUnits="userSpaceOnUse">
      <stop offset="0" stop-color="#058a8d"/><stop offset="1" stop-color="#00987e"/>
    </linearGradient>
  </defs>
  <title>05-wachstum</title>
  <polygon class="cls-1" points="85.78 793.12 84.74 787.52 313.64 626.35 501.67 661.89 772.34 596.83 903.23 441.78 1000.05 521.36 1295.8 143.98 1297.33 151.26 1000.94 529.47 903.96 449.75 775.49 601.92 774.58 602.14 501.81 667.71 313.63 632.13 85.78 793.12"/>
  <path class="cls-2" d="M315.29,619.94a9.25,9.25,0,1,0,9.25,9.25A9.26,9.26,0,0,0,315.29,619.94Z"/>
  <path class="cls-2" d="M502.29,675.45a11.25,11.25,0,1,1,11.25-11.25A11.26,11.26,0,0,1,502.29,675.45Z"/>
  <path class="cls-3" d="M502.29,654.94a9.25,9.25,0,1,1-9.25,9.25,9.26,9.26,0,0,1,9.25-9.25m0-4a13.25,13.25,0,1,0,13.25,13.25,13.27,13.27,0,0,0-13.25-13.25Z"/>
  <path class="cls-2" d="M774,610.15A11.25,11.25,0,1,1,785.2,598.9,11.26,11.26,0,0,1,774,610.15Z"/>
  <path class="cls-3" d="M774,589.65a9.25,9.25,0,1,1-9.25,9.25,9.26,9.26,0,0,1,9.25-9.25m0-4A13.25,13.25,0,1,0,787.2,598.9,13.27,13.27,0,0,0,774,585.65Z"/>
  <path class="cls-2" d="M904.26,458.8a11.25,11.25,0,1,1,11.25-11.25A11.26,11.26,0,0,1,904.26,458.8Z"/>
  <path class="cls-3" d="M904.26,438.3a9.25,9.25,0,1,1-9.25,9.25,9.26,9.26,0,0,1,9.25-9.25m0-4a13.25,13.25,0,1,0,13.25,13.25,13.27,13.27,0,0,0-13.25-13.25Z"/>
  <path class="cls-2" d="M1001.17,535.9a11.25,11.25,0,1,1,11.25-11.25A11.26,11.26,0,0,1,1001.17,535.9Z"/>
  <path class="cls-3" d="M1001.17,515.4a9.25,9.25,0,1,1-9.25,9.25,9.26,9.26,0,0,1,9.25-9.25m0-4a13.25,13.25,0,1,0,13.25,13.25,13.27,13.27,0,0,0-13.25-13.25Z"/>
  <path class="cls-2" d="M1296.53,157.27A11.25,11.25,0,1,1,1307.78,146,11.26,11.26,0,0,1,1296.53,157.27Z"/>
  <path class="cls-3" d="M1296.53,136.76a9.25,9.25,0,1,1-9.25,9.25,9.26,9.26,0,0,1,9.25-9.25m0-4A13.25,13.25,0,1,0,1309.78,146a13.27,13.27,0,0,0-13.25-13.25Z"/>
  <g class="cls-4">
    <path class="cls-5" d="M1023.16,262.18c-5.84-.89-5.84-8.34,0-9.23C1029.21,253.67,1029.21,261.47,1023.16,262.18Z"/>
    <path class="cls-5" d="M1002,509.4c-6-.71-6-8.52,0-9.23C1007.88,501.07,1007.88,508.52,1002,509.4Z"/>
    <path class="cls-5" d="M1307,236.54c-5.92-.78-6-8.41,0-9.23C1313,228.13,1312.93,235.76,1307,236.54Z"/>
    <path class="cls-5" d="M1361.59,271.09c-6-.71-6-8.52,0-9.23C1367.43,262.75,1367.43,270.2,1361.59,271.09Z"/>
    <path class="cls-5" d="M1180.33,204.8c-5.84-.89-5.84-8.34,0-9.23C1186.38,196.29,1186.38,204.09,1180.33,204.8Z"/>
    <path class="cls-5" d="M1180.41,550.52c-5.92-.78-6-8.41,0-9.23C1186.37,542.11,1186.33,549.74,1180.41,550.52Z"/>
    <path class="cls-5" d="M1154.93,465.42c-5.92-.78-6-8.41,0-9.23C1160.89,457,1160.85,464.63,1154.93,465.42Z"/>
    <path class="cls-5" d="M1242.4,333c-5.92-.78-6-8.41,0-9.23C1248.37,324.62,1248.32,332.25,1242.4,333Z"/>
    <path class="cls-5" d="M1177.74,400.87c-5.92-.78-6-8.41,0-9.23C1183.7,392.46,1183.66,400.09,1177.74,400.87Z"/>
    <path class="cls-5" d="M1084,309.87c-5.92-.78-6-8.41,0-9.23C1089.95,301.46,1089.9,309.09,1084,309.87Z"/>
    <path class="cls-5" d="M1134.32,249.59c-5.92-.78-6-8.41,0-9.23C1140.28,241.18,1140.24,248.81,1134.32,249.59Z"/>
    <path class="cls-5" d="M1099,443.53c-5.92-.78-6-8.41,0-9.23C1104.95,435.12,1104.9,442.75,1099,443.53Z"/>
    <path class="cls-5" d="M1046.6,604.18c-6-.82-5.92-8.45,0-9.23C1052.51,595.73,1052.56,603.36,1046.6,604.18Z"/>
    <path class="cls-5" d="M1311.54,320.86c-6-.71-6-8.52,0-9.23C1317.38,312.52,1317.38,320,1311.54,320.86Z"/>
    <path class="cls-5" d="M997.49,400.87c-5.9-.85-5.91-8.36,0-9.24C1003.44,392.37,1003.49,400.06,997.49,400.87Z"/>
    <path class="cls-5" d="M979.82,316.6c-5.92-.78-6-8.41,0-9.23C985.78,308.19,985.74,315.82,979.82,316.6Z"/>
    <path class="cls-5" d="M1243.89,191.44c-5.84-.89-5.84-8.34,0-9.23C1249.93,182.92,1249.93,190.73,1243.89,191.44Z"/>
    <path class="cls-5" d="M1139.29,613.08c-6-.71-6-8.52,0-9.23C1145.13,604.74,1145.13,612.19,1139.29,613.08Z"/>
    <path class="cls-5" d="M1075.15,195.89c-6-.71-6-8.52,0-9.23C1081,187.56,1081,195,1075.15,195.89Z"/>
    <path class="cls-5" d="M1311.54,464.38c-6-.71-6-8.52,0-9.23C1317.38,456,1317.38,463.49,1311.54,464.38Z"/>
    <path class="cls-5" d="M1248.34,527.19c-5.84-.89-5.84-8.34,0-9.23C1254.38,518.67,1254.38,526.48,1248.34,527.19Z"/>
    <path class="cls-5" d="M975.29,468.84c-5.84-.89-5.84-8.34,0-9.23C981.33,460.32,981.33,468.13,975.29,468.84Z"/>
    <path class="cls-5" d="M1066.09,522.57c-5.84-.89-5.84-8.34,0-9.23C1072.13,514.06,1072.13,521.86,1066.09,522.57Z"/>
    <path class="cls-5" d="M1285.13,587.3c-5.84-.89-5.84-8.34,0-9.23C1291.17,578.79,1291.17,586.59,1285.13,587.3Z"/>
    <path class="cls-5" d="M1340.85,400.87c-6-.82-5.92-8.45,0-9.23C1346.76,392.42,1346.81,400,1340.85,400.87Z"/>
  </g>
  <path class="cls-3" d="M315.29,619.94a9.25,9.25,0,1,1-9.25,9.25,9.26,9.26,0,0,1,9.25-9.25m0-4a13.25,13.25,0,1,0,13.25,13.25,13.27,13.27,0,0,0-13.25-13.25Z"/>
</svg>