<svg id="Ebene_1" data-name="Ebene 1" xmlns="http://www.w3.org/2000/svg" width="96" height="96" viewBox="0 0 96 96">
  <title>04-softwareentwicklung</title>
  <path d="M85.9,15.1H10.1c-4.8,0-5.4,1.7-5.4,4.6V76.4c0,2.8.7,4.6,5.4,4.6H86c4.8,0,5.4-1.7,5.4-4.6V19.7C91.4,16.8,90.7,15.1,85.9,15.1ZM11.4,18.8H84.6c1.5,0,2.2.4,2.2,2.2v7.6H9.2V21C9.2,19.4,9.9,18.8,11.4,18.8ZM84.6,77.4H11.4c-1.5,0-2.2-.4-2.2-2.2V31.9H86.8V75.3C86.8,76.8,86.2,77.4,84.6,77.4Zm-72.4-54a1.7,1.7,0,0,0,3.4,0h0a1.685,1.685,0,0,0-1.67-1.7H13.9a1.626,1.626,0,0,0-1.7,1.548c0,.051,0,.1,0,.152h0m5.9,0a1.685,1.685,0,0,0,1.67,1.7h.03a1.7,1.7,0,1,0-1.7-1.73v.03m5.7,0a1.685,1.685,0,0,0,1.67,1.7h.03a1.7,1.7,0,1,0-1.7-1.73v.03" fill="#0a8a90"/>
  <g>
    <path d="M30.3,69.279,18.857,56.8,30.313,44.588l4.407,0v.417L23.631,56.83,34.72,68.909v.37Z" fill="#ea556c"/>
    <path d="M41.943,74.709h-3.72L52.338,35.1h3.719Z" fill="#ea556c"/>
    <path d="M58.162,69.277v-.37L69.25,56.828,58.162,45.005v-.417h4.407L74.025,56.8,62.58,69.277Z" fill="#ea556c"/>
  </g>
</svg>
