<svg id="Ebene_2" data-name="Ebene 2" xmlns="http://www.w3.org/2000/svg" width="96" height="96" viewBox="0 0 96 96">
  <title>02-konzeption</title>
  <rect x="13.905" y="24.176" width="17.17" height="3.304" fill="#ea536a"/>
  <rect x="13.905" y="59.526" width="33.952" height="3.304" fill="#ea536a"/>
  <rect x="13.905" y="41.851" width="30.504" height="3.304" fill="#ea536a"/>
  <rect x="13.905" y="47.742" width="28.545" height="3.304" fill="#ea536a"/>
  <rect x="13.905" y="53.634" width="28.545" height="3.304" fill="#ea536a"/>
  <rect x="13.905" y="30.067" width="67.903" height="3.304" fill="#ea536a"/>
  <path d="M85.887,15.1H10.12c-4.688,0-5.42,1.722-5.42,4.627V76.373C4.7,79.278,5.432,81,10.12,81H85.887c4.688,0,5.42-1.722,5.42-4.627V19.727C91.307,16.822,90.575,15.1,85.887,15.1Zm.973,60.068c0,1.606-.786,2.122-2.259,2.122H76.647V74.024H63.321V77.29H11.406c-1.473,0-2.259-.516-2.259-2.122V20.932c0-1.606.786-2.122,2.259-2.122H84.6c1.473,0,2.259.516,2.259,2.122Z" fill="#00878f"/>
  <path d="M80.572,46.561c-.014-.029-.027-.057-.043-.085A11.788,11.788,0,0,0,70.019,40.1h-.035A11.343,11.343,0,1,0,81.731,51.438,10.92,10.92,0,0,0,80.572,46.561ZM69.984,59.618a8.4,8.4,0,0,1-8.591-8.18A8.309,8.309,0,0,1,68.407,43.4v8.035a1.578,1.578,0,0,0,2.234,1.435l7.647-3.5a7.772,7.772,0,0,1,.288,2.062A8.4,8.4,0,0,1,69.984,59.618Z" fill="#ea536a"/>
</svg>
