<svg id="Ebene_1" data-name="Ebene 1" xmlns="http://www.w3.org/2000/svg" width="96" height="96" viewBox="0 0 96 96">
  <title>06-betrieb</title>
  <path d="M83.36,82.247H51.78a4.151,4.151,0,0,0-1.6-1.83V68.36H45.82V80.417a4.134,4.134,0,0,0-1.6,1.83H12.64v3.641H44.373a4.107,4.107,0,0,0,7.254,0H83.36Z" fill="#ea556c"/>
  <path d="M72.961,52.643H23.039c-4.687,0-5.428,1.722-5.428,4.643v8.72c0,2.9.741,4.643,5.428,4.643H72.961c4.687,0,5.428-1.722,5.428-4.643v-8.72C78.389,54.387,77.648,52.643,72.961,52.643Zm-1.2,14.235H24.325c-1.482,0-2.18-.523-2.18-2.18V58.485c0-1.613.785-2.18,2.18-2.18h47.35c1.482,0,2.18.523,2.18,2.18l.087,6.213C73.942,66.311,73.157,66.878,71.762,66.878Z" fill="#0a8a90"/>
  <path d="M72.961,31.082H23.039c-4.687,0-5.428,1.722-5.428,4.643v8.72c0,2.9.741,4.643,5.428,4.643H72.961c4.687,0,5.428-1.722,5.428-4.643V35.681C78.389,32.805,77.648,31.082,72.961,31.082Zm-1.2,14.236H24.325c-1.482,0-2.18-.523-2.18-2.18V36.925c0-1.613.785-2.18,2.18-2.18h47.35c1.482,0,2.18.523,2.18,2.18l.087,6.213C73.942,44.751,73.157,45.318,71.762,45.318Z" fill="#0a8a90"/>
  <path d="M72.961,9.522H23.039c-4.687,0-5.428,1.722-5.428,4.643v8.72c0,2.9.741,4.643,5.428,4.643H72.961c4.687,0,5.428-1.722,5.428-4.643v-8.72C78.389,11.244,77.648,9.522,72.961,9.522Zm-1.2,14.236H24.325c-1.482,0-2.18-.523-2.18-2.18V15.365c0-1.613.785-2.18,2.18-2.18h47.35c1.482,0,2.18.523,2.18,2.18l.087,6.213C73.942,23.191,73.157,23.758,71.762,23.758Z" fill="#0a8a90"/>
  <rect x="27.268" y="16.651" width="18.704" height="3.641" fill="#ea556c"/>
  <rect x="27.268" y="38.211" width="18.704" height="3.641" fill="#ea556c"/>
  <rect x="27.268" y="59.771" width="18.704" height="3.641" fill="#ea556c"/>
</svg>
